<?xml version="1.0" encoding="utf-8"?>
<!-- Generator: Adobe Illustrator 16.0.0, SVG Export Plug-In . SVG Version: 6.00 Build 0)  -->
<!DOCTYPE svg PUBLIC "-//W3C//DTD SVG 1.1//EN" "http://www.w3.org/Graphics/SVG/1.1/DTD/svg11.dtd">
<svg version="1.1" id="图层_1" xmlns="http://www.w3.org/2000/svg" xmlns:xlink="http://www.w3.org/1999/xlink" x="0px" y="0px"
	 width="1440px" height="557px" viewBox="0 0 1440 557" enable-background="new 0 0 1440 557" xml:space="preserve">
<g>
	<circle fill="none" stroke="#13C2C2" cx="530" cy="195" r="5"/>
</g>
<g>
	<circle fill="#9EE6E6" fill-opacity="0.4" cx="606" cy="76" r="3"/>
</g>
<g>
	<circle fill="none" stroke="#13C2C2" cx="165" cy="540" r="5"/>
</g>
<g>
	<circle fill="none" stroke="#CED4D9" cx="701.5" cy="650" r="3.5"/>
</g>
<g>
	<circle fill="none" stroke="#F5222D" cx="526.5" cy="381.5" r="3.5"/>
</g>
<g>
	<circle fill="#9EE6E6" fill-opacity="0.4" cx="944" cy="251" r="5"/>
</g>
<g>
	<g transform="translate(0, 180)">
		<path fill="none" stroke="#CED4D9" d="M1184.817,450.228l-1.114,6.319c-0.192,1.088-1.229,1.814-2.317,1.622
			c-0.346-0.061-0.669-0.212-0.938-0.438l-4.915-4.124c-0.847-0.71-0.957-1.972-0.247-2.818c0.227-0.269,0.519-0.474,0.849-0.594
			l6.03-2.194c1.037-0.378,2.186,0.157,2.563,1.195C1184.847,449.526,1184.878,449.882,1184.817,450.228z"/>
	</g>
</g>
<g>
	<g transform="translate(0, 100)">
		<path fill="none" stroke="#2F54EB" d="M1378.817,206.228l-1.114,6.319c-0.192,1.088-1.229,1.814-2.317,1.622
			c-0.346-0.061-0.669-0.211-0.938-0.438l-4.915-4.124c-0.847-0.71-0.957-1.972-0.247-2.818c0.227-0.269,0.519-0.474,0.849-0.594
			l6.03-2.194c1.037-0.378,2.186,0.157,2.563,1.195C1378.847,205.526,1378.878,205.882,1378.817,206.228z"/>
	</g>
</g>
<g>
	<path fill="none" stroke="#1D39C4" stroke-opacity="0.4" d="M898.041,207.103l10.696,6.175c0.478,0.276,0.642,0.888,0.365,1.366
		l-6.175,10.696c-0.276,0.479-0.888,0.643-1.366,0.366l-10.695-6.175c-0.479-0.276-0.643-0.888-0.366-1.366l6.175-10.696
		C896.951,206.99,897.563,206.826,898.041,207.103z"/>
</g>
<g>
	<path fill="none" stroke="#CED4D9" d="M60.934,239.786l5.863,3.385c0.478,0.276,0.642,0.888,0.366,1.366l-3.385,5.863
		c-0.276,0.479-0.888,0.643-1.366,0.366l-5.863-3.385c-0.478-0.276-0.642-0.888-0.366-1.366l3.385-5.863
		C59.844,239.673,60.456,239.509,60.934,239.786z"/>
</g>
</svg>
