<?xml version="1.0" encoding="UTF-8"?>
<svg width="375px" height="350px" viewBox="0 0 375 350" version="1.1" xmlns="http://www.w3.org/2000/svg" xmlns:xlink="http://www.w3.org/1999/xlink">
    <!-- Generator: sketchtool 55.2 (78181) - https://sketchapp.com -->
    <title>C5723BBC-3760-4E0A-9C9F-7653D5102C84</title>
    <desc>Created with sketchtool.</desc>
    <g id="页面5" stroke="none" stroke-width="1" fill="none" fill-rule="evenodd">
        <g id="mobile-帮助中心首页">
            <g id="位图">
                <g id="编组-7" transform="translate(-185.000000, -113.000000)">
                    <rect id="矩形" fill="#F8FAFF" x="174" y="113" width="828" height="352"></rect>
                    <polygon id="矩形备份-6" fill="#82A7FC" opacity="0.100000001" transform="translate(515.297945, 254.252161) scale(1, -1) rotate(-13.000000) translate(-515.297945, -254.252161) " points="510.150084 249.107506 520.444243 249.10907 520.445807 259.396816 510.151647 259.395253"></polygon>
                    <path d="M559.729588,368.699385 L559.739207,368.699386 C564.000911,368.700033 567.455542,372.154665 567.45619,376.416368 C567.456838,380.676397 564.003927,384.130358 559.743898,384.131006 C559.743116,384.131006 559.742335,384.131006 559.741553,384.131006 L559.731934,384.131004 C555.47023,384.130357 552.015599,380.675726 552.014951,376.414022 C552.014303,372.153993 555.467214,368.700032 559.727244,368.699385 C559.728025,368.699384 559.728806,368.699384 559.729588,368.699385 Z" id="矩形备份-5" fill="#4E83FD" transform="translate(559.735571, 376.415195) scale(1, -1) rotate(-13.000000) translate(-559.735571, -376.415195) "></path>
                    <g id="编组-8" fill="#3370FF">
                        <path d="M259.223462,568.140178 C382.619655,568.140178 491.428571,428.752168 491.428571,296.64462 C491.428571,164.537072 382.619655,89.7364265 259.223462,89.7364265 C135.827269,89.7364265 35.7948904,196.830754 35.7948904,328.938302 C35.7948904,461.04585 3.36812401,572.712734 259.223462,568.140178 Z" id="蒙版备份" opacity="0.100000001"></path>
                        <path d="M249.509176,578.42843 C372.905369,578.42843 481.714286,439.040421 481.714286,306.932873 C481.714286,174.825325 372.905369,100.024679 249.509176,100.024679 C126.112983,100.024679 26.0806047,207.119007 26.0806047,339.226555 C26.0806047,471.334103 -6.3461617,583.000987 249.509176,578.42843 Z" id="蒙版备份-3" opacity="0.100000001"></path>
                        <path d="M241.891185,505.12884 C374.595261,505.12884 491.611731,362.617112 491.611731,227.549003 C491.611731,92.4808941 374.595261,16.0039487 241.891185,16.0039487 C109.187108,16.0039487 1.60919876,125.498285 1.60919876,260.566394 C1.60919876,395.634504 -33.2635473,509.803869 241.891185,505.12884 Z" id="蒙版备份-2" opacity="0.200000003"></path>
                        <path d="M244.366319,478.403751 C367.762512,478.403751 476.571429,339.015742 476.571429,206.908193 C476.571429,74.8006455 367.762512,0 244.366319,0 C120.970126,0 20.9377476,107.094328 20.9377476,239.201876 C20.9377476,371.309424 -11.4890188,482.976308 244.366319,478.403751 Z" id="蒙版备份" opacity="0.300000012"></path>
                        <path d="M263.79489,494.4077 C387.191083,494.4077 487.223462,387.313372 487.223462,255.205824 C487.223462,123.098276 387.191083,16.0039487 263.79489,16.0039487 C140.398698,16.0039487 40.366319,123.098276 40.366319,255.205824 C40.366319,387.313372 7.93955258,498.980257 263.79489,494.4077 Z" id="蒙版备份"></path>
                    </g>
                </g>
            </g>
        </g>
    </g>
</svg>